<svg width="29" height="24" viewBox="0 0 29 24" fill="none" xmlns="http://www.w3.org/2000/svg">
<path d="M29 2.841C27.9339 3.32359 26.7866 3.64911 25.5827 3.79479C26.8119 3.04542 27.7544 1.85843 28.1988 0.442437C27.0491 1.13725 25.7764 1.64142 24.4207 1.91359C23.3357 0.736187 21.7893 1.35052e-05 20.078 1.35052e-05C16.7926 1.35052e-05 14.1288 2.71271 14.1288 6.05906C14.1288 6.53326 14.1812 6.99547 14.2831 7.43969C9.33818 7.1867 4.95372 4.77495 2.01916 1.10907C1.50701 2.00351 1.21385 3.04423 1.21385 4.15568C1.21385 6.25749 2.26405 8.11232 3.86054 9.19859C2.8857 9.16682 1.96795 8.89405 1.16558 8.44024C1.16499 8.46542 1.16499 8.4912 1.16499 8.51697C1.16499 11.4521 3.21594 13.9004 5.93799 14.4579C5.43879 14.5958 4.9131 14.6701 4.37034 14.6701C3.98652 14.6701 3.61389 14.6324 3.25067 14.561C4.0083 16.968 6.20525 18.7203 8.80838 18.7689C6.77214 20.3941 4.20728 21.3629 1.4193 21.3629C0.939529 21.3629 0.465644 21.3341 0 21.2777C2.63374 22.9977 5.76079 24 9.12037 24C20.0645 24 26.0484 14.7679 26.0484 6.76107C26.0484 6.49849 26.0431 6.23651 26.0319 5.97633C27.1939 5.12386 28.2029 4.05617 29 2.841Z" fill="#333333"/>
</svg>
