<svg width="22" height="22" viewBox="0 0 22 22" fill="none" xmlns="http://www.w3.org/2000/svg">
<path d="M18.7782 3.2218C16.7005 1.14421 13.9382 0 11 0C8.06175 0 5.29942 1.14421 3.2218 3.2218C1.14421 5.29942 0 8.0618 0 11C0 13.9382 1.14421 16.7005 3.2218 18.7782C5.29942 20.8558 8.0618 22 11 22C13.9382 22 16.7005 20.8558 18.7782 18.7782C20.8558 16.7005 22 13.9382 22 11C22 8.0618 20.8558 5.29947 18.7782 3.2218ZM16.2553 8.38204L10.108 14.5294C9.98216 14.6553 9.8172 14.7182 9.65228 14.7182C9.48733 14.7182 9.32237 14.6553 9.19652 14.5294L5.74466 11.0776C5.49295 10.8259 5.49295 10.4179 5.74466 10.1661C5.99633 9.91439 6.40445 9.91439 6.65616 10.1661L9.65228 13.1622L15.3438 7.47055C15.5955 7.21884 16.0036 7.21884 16.2553 7.47055C16.507 7.72226 16.507 8.13033 16.2553 8.38204Z" fill="#76C446"/>
</svg>
